<svg width="150" height="146" viewBox="0 0 150 146" fill="none" xmlns="http://www.w3.org/2000/svg">
<path d="M50 134C50 140.627 44.5523 146.142 38.1148 144.567C35.6472 143.963 33.2236 143.171 30.8658 142.194C24.7995 139.681 19.2876 135.998 14.6447 131.355C10.0017 126.712 6.31876 121.2 3.80602 115.134C1.29329 109.068 0 102.566 0 96C0 89.4339 1.29329 82.9321 3.80602 76.8658C6.31876 70.7995 10.0017 65.2876 14.6447 60.6447C19.2876 56.0017 24.7996 52.3188 30.8658 49.806C33.2236 48.8294 35.6472 48.037 38.1148 47.4331C44.5523 45.8578 50 51.3726 50 58L50 96L50 134Z" fill="#202327"/>
<path d="M100 58C100 51.3726 105.448 45.8578 111.885 47.4331C114.353 48.037 116.776 48.8294 119.134 49.806C125.2 52.3188 130.712 56.0017 135.355 60.6447C139.998 65.2876 143.681 70.7996 146.194 76.8658C148.707 82.9321 150 89.4339 150 96C150 102.566 148.707 109.068 146.194 115.134C143.681 121.2 139.998 126.712 135.355 131.355C130.712 135.998 125.2 139.681 119.134 142.194C116.776 143.171 114.353 143.963 111.885 144.567C105.448 146.142 100 140.627 100 134L100 96V58Z" fill="#202327"/>
<path d="M17.1135 73C13.1848 73 9.96701 69.8088 10.3155 65.8956C11.8072 49.1429 18.541 33.3866 29.4774 21.3812C41.9486 7.69105 58.8631 1.4617e-06 76.5 0C94.1369 -1.4617e-06 111.051 7.69105 123.523 21.3812C134.459 33.3865 141.193 49.1429 142.685 65.8956C143.033 69.8088 139.815 73 135.887 73V73C131.958 73 128.815 69.8051 128.372 65.9015C126.941 53.2996 121.729 41.4989 113.463 32.4244C103.66 21.6631 90.3637 15.6175 76.5 15.6175C62.6363 15.6175 49.3404 21.6632 39.5373 32.4245C31.2709 41.4989 26.0591 53.2996 24.6282 65.9015C24.185 69.8051 21.0421 73 17.1135 73V73Z" fill="#202327"/>
</svg>
